<mxfile host="app.diagrams.net" modified="2024-06-29T11:35:27.915Z" agent="Mozilla/5.0 (Macintosh; Intel Mac OS X 10_15_7) AppleWebKit/537.36 (KHTML, like Gecko) Chrome/124.0.0.0 Safari/537.36" etag="-khIgoHFSphfE4P6lAnw" version="24.5.4" type="github">
  <diagram name="第 1 页" id="B1O_oVjKtLdwIZSKNqQJ">
    <mxGraphModel dx="1026" dy="685" grid="1" gridSize="10" guides="1" tooltips="1" connect="1" arrows="1" fold="1" page="1" pageScale="1" pageWidth="827" pageHeight="1169" math="0" shadow="0">
      <root>
        <mxCell id="0" />
        <mxCell id="1" parent="0" />
        <mxCell id="yCCEbC3JHxBL8DUE1WDv-17" value="" style="rounded=1;whiteSpace=wrap;html=1;fillColor=#dae8fc;strokeColor=#6c8ebf;" vertex="1" parent="1">
          <mxGeometry x="160" y="130" width="680" height="380" as="geometry" />
        </mxCell>
        <mxCell id="yCCEbC3JHxBL8DUE1WDv-9" style="edgeStyle=orthogonalEdgeStyle;rounded=0;orthogonalLoop=1;jettySize=auto;html=1;entryX=0.5;entryY=1;entryDx=0;entryDy=0;" edge="1" parent="1" source="yCCEbC3JHxBL8DUE1WDv-1" target="yCCEbC3JHxBL8DUE1WDv-2">
          <mxGeometry relative="1" as="geometry" />
        </mxCell>
        <mxCell id="yCCEbC3JHxBL8DUE1WDv-10" style="edgeStyle=orthogonalEdgeStyle;rounded=0;orthogonalLoop=1;jettySize=auto;html=1;entryX=0.5;entryY=0;entryDx=0;entryDy=0;" edge="1" parent="1" source="yCCEbC3JHxBL8DUE1WDv-1" target="yCCEbC3JHxBL8DUE1WDv-3">
          <mxGeometry relative="1" as="geometry" />
        </mxCell>
        <mxCell id="yCCEbC3JHxBL8DUE1WDv-1" value="&lt;font style=&quot;font-size: 15px;&quot;&gt;用户管理模块&lt;/font&gt;" style="rounded=0;whiteSpace=wrap;html=1;" vertex="1" parent="1">
          <mxGeometry x="310" y="290" width="120" height="60" as="geometry" />
        </mxCell>
        <mxCell id="yCCEbC3JHxBL8DUE1WDv-2" value="&lt;font style=&quot;font-size: 15px;&quot;&gt;题目管理模块&lt;/font&gt;" style="rounded=0;whiteSpace=wrap;html=1;" vertex="1" parent="1">
          <mxGeometry x="310" y="180" width="120" height="60" as="geometry" />
        </mxCell>
        <mxCell id="yCCEbC3JHxBL8DUE1WDv-16" style="edgeStyle=orthogonalEdgeStyle;rounded=0;orthogonalLoop=1;jettySize=auto;html=1;entryX=0;entryY=0.5;entryDx=0;entryDy=0;startArrow=classic;startFill=1;" edge="1" parent="1" source="yCCEbC3JHxBL8DUE1WDv-3" target="yCCEbC3JHxBL8DUE1WDv-2">
          <mxGeometry relative="1" as="geometry">
            <Array as="points">
              <mxPoint x="240" y="430" />
              <mxPoint x="240" y="210" />
            </Array>
          </mxGeometry>
        </mxCell>
        <mxCell id="yCCEbC3JHxBL8DUE1WDv-3" value="&lt;font style=&quot;font-size: 15px;&quot;&gt;评测管理模块&lt;/font&gt;" style="rounded=0;whiteSpace=wrap;html=1;" vertex="1" parent="1">
          <mxGeometry x="310" y="400" width="120" height="60" as="geometry" />
        </mxCell>
        <mxCell id="yCCEbC3JHxBL8DUE1WDv-11" style="edgeStyle=orthogonalEdgeStyle;rounded=0;orthogonalLoop=1;jettySize=auto;html=1;entryX=1;entryY=0.5;entryDx=0;entryDy=0;startArrow=classic;startFill=1;" edge="1" parent="1" source="yCCEbC3JHxBL8DUE1WDv-4" target="yCCEbC3JHxBL8DUE1WDv-1">
          <mxGeometry relative="1" as="geometry" />
        </mxCell>
        <mxCell id="yCCEbC3JHxBL8DUE1WDv-13" style="edgeStyle=orthogonalEdgeStyle;rounded=0;orthogonalLoop=1;jettySize=auto;html=1;entryX=1;entryY=0.5;entryDx=0;entryDy=0;exitX=0.5;exitY=0;exitDx=0;exitDy=0;" edge="1" parent="1" source="yCCEbC3JHxBL8DUE1WDv-4" target="yCCEbC3JHxBL8DUE1WDv-2">
          <mxGeometry relative="1" as="geometry" />
        </mxCell>
        <mxCell id="yCCEbC3JHxBL8DUE1WDv-14" style="edgeStyle=orthogonalEdgeStyle;rounded=0;orthogonalLoop=1;jettySize=auto;html=1;entryX=1;entryY=0.5;entryDx=0;entryDy=0;exitX=0.5;exitY=1;exitDx=0;exitDy=0;" edge="1" parent="1" source="yCCEbC3JHxBL8DUE1WDv-4" target="yCCEbC3JHxBL8DUE1WDv-3">
          <mxGeometry relative="1" as="geometry" />
        </mxCell>
        <mxCell id="yCCEbC3JHxBL8DUE1WDv-15" style="edgeStyle=orthogonalEdgeStyle;rounded=0;orthogonalLoop=1;jettySize=auto;html=1;entryX=0;entryY=0.5;entryDx=0;entryDy=0;" edge="1" parent="1" source="yCCEbC3JHxBL8DUE1WDv-4" target="yCCEbC3JHxBL8DUE1WDv-6">
          <mxGeometry relative="1" as="geometry" />
        </mxCell>
        <mxCell id="yCCEbC3JHxBL8DUE1WDv-4" value="&lt;font style=&quot;font-size: 15px;&quot;&gt;系统管理模块&lt;/font&gt;" style="rounded=0;whiteSpace=wrap;html=1;" vertex="1" parent="1">
          <mxGeometry x="500" y="290" width="120" height="60" as="geometry" />
        </mxCell>
        <mxCell id="yCCEbC3JHxBL8DUE1WDv-6" value="&lt;font style=&quot;font-size: 15px;&quot;&gt;其他模块&lt;/font&gt;" style="rounded=0;whiteSpace=wrap;html=1;" vertex="1" parent="1">
          <mxGeometry x="690" y="290" width="120" height="60" as="geometry" />
        </mxCell>
        <mxCell id="yCCEbC3JHxBL8DUE1WDv-18" value="&lt;font style=&quot;font-size: 18px;&quot;&gt;后端&lt;/font&gt;" style="text;html=1;align=center;verticalAlign=middle;resizable=0;points=[];autosize=1;strokeColor=none;fillColor=none;" vertex="1" parent="1">
          <mxGeometry x="720" y="170" width="60" height="40" as="geometry" />
        </mxCell>
      </root>
    </mxGraphModel>
  </diagram>
</mxfile>
